<?xml version="1.0" standalone="no"?>
<!DOCTYPE svg PUBLIC "-//W3C//DTD SVG 20010904//EN"
 "http://www.w3.org/TR/2001/REC-SVG-20010904/DTD/svg10.dtd">
<svg version="1.0" xmlns="http://www.w3.org/2000/svg"
 width="160.000000pt" height="160.000000pt" viewBox="0 0 160.000000 160.000000"
 preserveAspectRatio="xMidYMid meet">
<metadata>
Created by potrace 1.11, written by Peter Selinger 2001-2013
</metadata>
<g transform="translate(0.000000,160.000000) scale(0.100000,-0.100000)"
fill="#000000" stroke="none">
<path d="M736 1556 c-14 -12 -23 -13 -33 -5 -32 27 -211 -30 -324 -102 -185
-118 -324 -329 -359 -544 -9 -56 -8 -59 20 -92 16 -18 32 -43 34 -56 11 -52
13 -106 6 -157 -6 -46 -4 -64 17 -114 55 -133 165 -264 289 -346 127 -83 244
-114 429 -113 116 1 140 4 221 31 84 27 134 55 134 74 0 5 -22 -3 -48 -16
-102 -52 -259 -81 -362 -68 -73 10 -69 13 50 37 264 54 388 129 502 305 26 41
48 79 48 85 0 5 -19 -22 -43 -60 -24 -38 -56 -76 -73 -85 -16 -9 -35 -27 -41
-41 -11 -21 -13 -12 -13 63 0 102 -30 210 -79 286 -79 123 -229 226 -369 253
-185 35 -403 -45 -520 -192 l-47 -59 -3 35 c-2 20 -7 33 -13 30 -5 -4 -9 0 -9
9 0 8 6 16 13 19 9 3 9 9 -2 30 -9 16 -12 40 -8 63 7 43 46 91 58 72 22 -35
98 115 85 167 -5 21 -3 25 14 25 11 0 40 20 64 45 25 25 52 45 61 45 15 0 15
-3 5 -15 -10 -12 -10 -21 -1 -41 10 -22 17 -26 46 -22 41 5 44 -4 10 -26 -19
-12 -23 -21 -16 -34 21 -40 46 -107 43 -116 -4 -13 158 0 171 13 8 8 5 11 -11
11 -13 0 -22 6 -22 15 0 18 12 19 29 3 11 -11 12 -6 7 27 -3 22 -1 56 4 75 8
30 8 27 4 -19 l-6 -53 45 3 c25 2 43 1 41 -3 -2 -4 6 -14 18 -22 14 -10 17
-16 8 -16 -33 0 38 -53 74 -55 39 -2 47 8 19 24 -14 8 -9 10 25 11 29 0 63 11
107 35 67 36 90 37 101 3 4 -12 11 -17 21 -14 10 4 13 2 10 -8 -8 -21 4 -28
18 -10 10 14 15 13 43 -11 37 -31 35 -32 50 13 11 31 10 33 -10 26 -17 -5 -20
-3 -14 11 5 15 1 17 -25 13 -29 -5 -30 -4 -14 9 11 7 27 13 36 13 10 0 26 3
36 6 17 5 17 5 0 -9 -18 -15 -18 -15 2 -22 12 -3 25 -4 31 0 5 3 7 0 4 -9 -3
-8 1 -25 10 -38 9 -12 16 -29 16 -38 0 -8 -10 2 -23 22 l-22 38 -13 -30 c-12
-27 -11 -33 8 -60 23 -33 50 -40 50 -13 0 12 3 14 10 7 16 -16 15 -95 -1 -132
-12 -28 -12 -34 0 -42 11 -6 13 -26 8 -89 -4 -44 -3 -83 2 -85 17 -11 45 118
44 209 -1 166 -63 318 -182 448 -37 40 -75 91 -86 115 -22 52 -79 105 -130
122 -58 19 -169 9 -198 -18 -17 -16 -44 -25 -101 -32 -109 -14 -150 -26 -237
-71 -98 -51 -176 -121 -238 -215 -84 -124 -124 -296 -103 -437 21 -135 68
-229 201 -397 33 -41 58 -77 56 -79 -16 -16 -162 122 -227 214 -68 96 -72 109
-69 230 1 86 -3 123 -18 170 -29 91 -34 122 -22 157 6 18 13 46 15 63 22 125
119 282 228 370 47 38 88 67 88 62 0 -3 28 7 63 23 34 16 76 32 92 35 l30 6
-25 -15 c-14 -8 -21 -15 -16 -16 5 0 1 -9 -9 -20 -10 -11 -13 -20 -7 -20 6 0
12 6 15 13 3 9 9 9 26 -1 16 -9 26 -10 35 -3 7 6 16 8 19 4 4 -3 13 -1 20 5 8
7 16 9 20 6 8 -8 87 6 87 16 0 4 -8 6 -18 3 -10 -2 -25 3 -33 13 -13 16 -12
16 7 6 18 -10 27 -7 60 18 38 29 104 42 104 21 0 -6 -15 -7 -32 -5 -26 5 -38
1 -57 -19 -26 -29 -21 -47 14 -47 12 0 25 -7 29 -15 6 -17 35 -10 54 13 6 9
12 11 12 5 0 -6 33 -12 81 -15 44 -3 84 -9 87 -14 15 -22 59 -42 72 -34 20 13
32 2 20 -20 -13 -23 4 -37 50 -42 20 -2 34 -8 33 -15 -1 -6 4 -17 12 -23 12
-10 15 -10 15 1 0 10 3 10 12 1 7 -7 23 -13 37 -13 24 -2 24 -2 3 -6 -22 -4
-22 -5 13 -46 19 -22 35 -45 35 -49 0 -5 4 -7 9 -4 5 3 14 -1 21 -9 15 -18 40
-20 40 -2 0 7 -7 24 -16 37 -12 19 -10 18 9 -4 44 -51 100 -173 113 -249 7
-40 13 -119 14 -177 0 -127 15 -164 25 -65 23 208 -65 465 -205 602 -18 17
-39 29 -46 26 -8 -3 -14 1 -14 10 0 46 -188 159 -319 192 -95 24 -221 30 -245
11z m164 -32 c0 -2 -7 -4 -15 -4 -8 0 -15 4 -15 10 0 5 7 7 15 4 8 -4 15 -8
15 -10z m85 -14 c3 -6 -1 -7 -9 -4 -18 7 -21 14 -7 14 6 0 13 -4 16 -10z m90
-24 c19 -8 35 -18 35 -21 0 -5 -70 21 -79 30 -8 9 10 5 44 -9z m115 -62 c0 -2
-9 0 -20 6 -11 6 -20 13 -20 16 0 2 9 0 20 -6 11 -6 20 -13 20 -16z m-199 -46
c47 -14 104 -66 123 -113 45 -106 20 -186 -74 -242 -80 -49 -167 -42 -236 19
-47 42 -63 75 -70 148 -4 53 -2 66 17 94 37 54 121 103 178 105 13 1 41 -4 62
-11z m-271 -111 c0 -5 -7 -2 -15 7 -9 8 -23 13 -33 10 -13 -5 -14 -4 -3 4 7 5
10 15 7 21 -4 6 -4 16 0 22 6 11 42 -43 44 -64z m-153 7 c-3 -3 -12 -4 -19 -1
-8 3 -5 6 6 6 11 1 17 -2 13 -5z m110 -70 c-3 -3 -12 -4 -19 -1 -8 3 -5 6 6 6
11 1 17 -2 13 -5z m18 -84 c3 -5 -1 -10 -10 -10 -9 0 -13 5 -10 10 3 6 8 10
10 10 2 0 7 -4 10 -10z m-62 -7 c-13 -2 -33 -2 -45 0 -13 2 -3 4 22 4 25 0 35
-2 23 -4z m184 -257 c118 -40 210 -110 276 -211 18 -26 23 -41 15 -46 -7 -5
-1 -20 18 -45 16 -21 22 -34 14 -29 -13 8 -13 7 0 -9 8 -11 13 -29 12 -41 -2
-12 4 -28 12 -35 12 -9 16 -32 16 -91 0 -44 -4 -79 -9 -79 -5 0 -13 -9 -16
-21 -13 -41 -20 -6 -17 86 4 91 -3 133 -34 202 -8 17 -14 34 -14 37 0 11 -76
110 -106 137 -129 120 -343 167 -497 111 -75 -27 -190 -104 -219 -145 -12 -18
-35 -48 -51 -67 l-30 -34 7 36 c8 44 128 173 170 184 15 3 50 17 77 30 27 13
53 24 59 24 5 0 10 4 10 9 0 4 10 6 23 4 12 -2 56 0 97 5 112 14 111 14 187
-12z m-42 -41 c176 -46 314 -203 347 -394 14 -81 1 -174 -29 -215 -27 -38
-146 -87 -241 -100 l-44 -7 23 38 23 38 -33 -27 c-34 -29 -41 -31 -78 -28 -13
1 -23 -3 -23 -8 0 -16 -124 -5 -171 15 -58 26 -147 116 -166 167 -9 25 -12 59
-9 86 3 30 2 38 -4 25 -5 -11 -9 -49 -10 -85 l-1 -65 -49 55 c-67 74 -123 180
-114 216 4 14 29 59 56 100 39 58 65 84 124 124 42 27 79 50 82 50 4 1 30 7
57 15 67 18 188 18 260 0z"/>
<path d="M899 1370 c-45 -13 -77 -40 -99 -84 -43 -90 -14 -174 77 -220 116
-58 257 69 213 193 -14 40 -57 91 -76 91 -7 0 -14 4 -16 8 -5 13 -69 20 -99
12z m79 -50 c13 0 21 -4 18 -9 -3 -5 5 -12 19 -15 49 -13 79 -94 54 -148 -12
-27 -64 -65 -105 -77 -59 -17 -147 39 -168 107 -10 31 12 91 45 124 21 21 35
27 58 24 18 -2 31 1 31 7 0 7 4 7 12 -1 7 -7 23 -12 36 -12z"/>
<path d="M571 623 c-29 -8 -69 -26 -88 -41 -47 -35 -103 -110 -103 -136 1 -16
6 -11 22 19 31 61 67 95 133 126 91 44 174 35 268 -27 34 -23 37 -23 28 -5
-16 29 -99 67 -157 73 -27 3 -73 -1 -103 -9z"/>
<path d="M584 586 c-90 -29 -141 -79 -164 -165 -26 -97 27 -215 119 -263 193
-101 409 96 320 292 -26 58 -53 87 -109 115 -59 30 -116 37 -166 21z m173 -63
c36 -27 72 -80 89 -129 38 -109 -64 -239 -191 -245 -77 -5 -162 48 -202 124
-24 47 -20 116 10 163 73 114 206 154 294 87z"/>
<path d="M545 330 c3 -5 8 -10 11 -10 2 0 4 5 4 10 0 6 -5 10 -11 10 -5 0 -7
-4 -4 -10z"/>
<path d="M850 521 c0 -5 5 -13 10 -16 6 -3 10 -2 10 4 0 5 -4 13 -10 16 -5 3
-10 2 -10 -4z"/>
<path d="M333 1045 c-30 -21 -46 -77 -38 -131 3 -24 10 -46 15 -49 5 -3 7 -12
3 -20 -7 -20 0 -19 68 12 64 29 66 35 47 118 -19 84 -46 104 -95 70z"/>
<path d="M1541 624 c0 -11 3 -14 6 -6 3 7 2 16 -1 19 -3 4 -6 -2 -5 -13z"/>
<path d="M1520 558 c-28 -95 -66 -152 -115 -173 -46 -19 -183 -153 -190 -186
-4 -15 -13 -33 -21 -40 -19 -16 -18 -40 1 -32 9 3 27 28 41 55 36 70 97 133
156 160 45 20 53 29 88 98 39 79 65 148 58 156 -3 2 -11 -15 -18 -38z"/>
</g>
</svg>
